<?xml version="1.0" standalone="no"?>
<!DOCTYPE svg PUBLIC "-//W3C//DTD SVG 20010904//EN"
 "http://www.w3.org/TR/2001/REC-SVG-20010904/DTD/svg10.dtd">
<svg version="1.0" xmlns="http://www.w3.org/2000/svg"
 width="700.000000pt" height="700.000000pt" viewBox="0 0 700.000000 700.000000"
 preserveAspectRatio="xMidYMid meet">
<metadata>
Created by potrace 1.14, written by Peter Selinger 2001-2017
</metadata>
<g transform="translate(0.000000,700.000000) scale(0.100000,-0.100000)"
fill="#000000" stroke="none">
<path d="M4445 6806 c-237 -79 -510 -433 -850 -1100 -62 -122 -117 -220 -122
-219 -96 19 -439 17 -573 -3 -25 -4 -54 -8 -65 -10 -50 -7 -136 -26 -205 -45
-669 -181 -1209 -707 -1436 -1399 -27 -80 -59 -210 -68 -275 -4 -23 -9 -52
-12 -65 -3 -14 -8 -109 -10 -212 l-3 -186 -104 -149 c-246 -353 -295 -485
-302 -803 -2 -113 5 -212 19 -280 3 -14 8 -38 11 -54 18 -87 105 -266 168
-344 53 -67 183 -186 253 -232 81 -54 206 -121 289 -156 57 -24 118 -48 125
-50 3 0 12 -4 20 -7 72 -30 386 -115 485 -133 17 -2 38 -7 47 -10 19 -6 34 -9
98 -19 63 -10 79 -13 98 -19 9 -3 37 -8 62 -11 25 -3 59 -7 75 -10 33 -6 89
-15 120 -21 11 -1 73 -10 137 -19 65 -9 125 -18 135 -19 10 -2 45 -7 78 -10
33 -4 67 -9 75 -11 8 -2 40 -6 71 -10 31 -3 67 -8 79 -10 12 -2 49 -7 83 -10
34 -4 64 -8 67 -10 3 -2 30 -6 60 -9 30 -3 64 -8 75 -10 11 -2 43 -7 70 -10
46 -6 325 -52 370 -61 11 -2 58 -11 105 -20 307 -60 578 -142 770 -233 131
-62 292 -167 367 -241 39 -37 41 -37 73 -8 14 12 48 40 75 62 172 138 404 410
554 649 159 254 314 642 368 924 42 220 51 332 48 582 -1 140 -5 266 -8 280
-3 14 -8 45 -11 70 -3 25 -8 56 -11 70 -3 14 -10 52 -16 85 -35 198 -130 475
-238 696 -39 80 -45 101 -40 130 4 19 10 54 13 79 3 25 8 63 11 85 18 125 23
245 19 450 -2 127 -6 248 -9 270 -50 370 -104 592 -212 865 -80 201 -224 471
-325 605 -235 313 -468 508 -697 585 -80 27 -202 35 -256 16z"/>
</g>
</svg>
